<?xml version="1.0" encoding="utf-8"?>
<!-- Generator: Adobe Illustrator 17.1.0, SVG Export Plug-In . SVG Version: 6.00 Build 0)  -->
<!DOCTYPE svg PUBLIC "-//W3C//DTD SVG 1.1//EN" "http://www.w3.org/Graphics/SVG/1.1/DTD/svg11.dtd">
<svg version="1.1" id="Capa_1" xmlns="http://www.w3.org/2000/svg" xmlns:xlink="http://www.w3.org/1999/xlink" x="0px" y="0px"
	 viewBox="11 637.9 900 762.4" enable-background="new 11 637.9 900 762.4" xml:space="preserve">
<path id="XMLID_1284_" fill="#FFFFFF" d="M843.4,654.9H78.6c-20.1,0-36.4,16.3-36.4,36.4v465c0,20.1,16.3,35.8,36.4,35.8h428v154.8
	c0,15.3,11.5,28.9,25.9,34.2c4.1,1.5,9.3,2.2,13.5,2.2c10.5,0,21.2-4.9,28.3-13.2l151.1-178h118.1c20.1,0,36.4-15.7,36.4-35.8v-465
	C879.8,671.2,863.5,654.9,843.4,654.9z M807,1119.3h-98.5c-10.7,0-22.9,5-29.8,13.2l-99.3,115.1v-91.3c0-20.1-12.3-37-32.4-37H115
	V727.7h692V1119.3z M211.9,855.2c0-20.1,16.3-36.4,36.4-36.4H512c20.1,0,36.4,16.3,36.4,36.4s-16.3,36.4-36.4,36.4H248.3
	C228.2,891.6,211.9,875.3,211.9,855.2z M611.6,883.1c-6.7-6.7-10.7-16.1-10.7-25.7c0-9.7,3.9-19,10.7-25.8
	c6.8-6.8,16.2-10.7,25.8-10.7c9.7,0,19,3.8,25.8,10.7c6.7,6.7,10.7,16.2,10.7,25.8c0,9.6-3.9,18.9-10.7,25.7
	c-6.8,6.8-16.2,10.7-25.8,10.7C627.8,893.8,618.4,889.9,611.6,883.1z"/>
</svg>
