<?xml version="1.0" encoding="utf-8"?>
<!-- Generator: Adobe Illustrator 17.1.0, SVG Export Plug-In . SVG Version: 6.00 Build 0)  -->
<!DOCTYPE svg PUBLIC "-//W3C//DTD SVG 1.1//EN" "http://www.w3.org/Graphics/SVG/1.1/DTD/svg11.dtd">
<svg version="1.1" id="Capa_1" xmlns="http://www.w3.org/2000/svg" xmlns:xlink="http://www.w3.org/1999/xlink" x="0px" y="0px"
	 viewBox="0 0 18.4 14.1" enable-background="new 0 0 18.4 14.1" xml:space="preserve">
<path fill="#FFFFFF" d="M18.4,1.1c0,0.6-0.5,1.1-1.1,1.1H1.1C0.5,2.1,0,1.6,0,1.1l0,0C0,0.5,0.5,0,1.1,0h16.3
	C18,0,18.4,0.5,18.4,1.1L18.4,1.1z"/>
<path fill="#FFFFFF" d="M14.4,7.1c0,0.6-0.5,1.1-1.1,1.1H1.1C0.5,8.1,0,7.6,0,7.1l0,0C0,6.5,0.5,6,1.1,6h12.3
	C14,6,14.4,6.5,14.4,7.1L14.4,7.1z"/>
<path fill="#FFFFFF" d="M9.4,13.1c0,0.6-0.5,1.1-1.1,1.1H1.1c-0.6,0-1.1-0.5-1.1-1.1l0,0C0,12.5,0.5,12,1.1,12h7.3
	C9,12,9.4,12.5,9.4,13.1L9.4,13.1z"/>
</svg>
