<?xml version="1.0" encoding="utf-8"?>
<!-- Generator: Adobe Illustrator 17.1.0, SVG Export Plug-In . SVG Version: 6.00 Build 0)  -->
<!DOCTYPE svg PUBLIC "-//W3C//DTD SVG 1.1//EN" "http://www.w3.org/Graphics/SVG/1.1/DTD/svg11.dtd">
<svg version="1.1" id="Capa_1" xmlns="http://www.w3.org/2000/svg" xmlns:xlink="http://www.w3.org/1999/xlink" x="0px" y="0px"
	 viewBox="0 0 83.6 88" enable-background="new 0 0 83.6 88" xml:space="preserve">
<path fill="#a8aeb9" d="M76.9,17.3c0.8,0.7,1.7,1,2.7,1c1.1,0,2.2-0.4,3-1.3c1.5-1.6,1.3-4.2-0.3-5.7l-5.1-4.7c0,0,0,0,0,0l0,0
	l-5.2-4.7c-1.6-1.5-4.1-1.4-5.6,0.3c-1.5,1.6-1.3,4.2,0.3,5.7l2.2,2l-4,4.5c-4.6-3.4-9.9-5.9-15.6-7.2c-0.1-1.3-0.6-2.7-1.6-4
	c-1-1.4-3.1-3-6.8-3.2c-0.1,0-0.1,0-0.2,0c-3.5,0-5.5,1.5-6.6,2.8c-1.2,1.4-1.7,3.1-1.9,4.4C13.8,11.1,0,27.5,0,47.1
	C0,69.7,18.2,88,40.6,88C63,88,81.2,69.7,81.2,47.1c0-10.5-4-20.1-10.5-27.4l4-4.5L76.9,17.3z M40.6,80C22.6,80,8,65.2,8,47.1
	C8,29,22.6,14.3,40.6,14.3c18,0,32.6,14.7,32.6,32.8C73.2,65.2,58.6,80,40.6,80z M47.6,47.1c0,3.8-3.1,6.9-6.9,6.9
	c-3.8,0-6.8-3.1-6.8-6.9c0-2.3,1-4.4,3-5.6V25.3c0-2.2,1.8-4,4-4c2.2,0,4,1.8,4,4v16.2C46.8,42.8,47.6,44.8,47.6,47.1z"/>
</svg>
