<?xml version="1.0" encoding="utf-8"?>
<!-- Generator: Adobe Illustrator 17.1.0, SVG Export Plug-In . SVG Version: 6.00 Build 0)  -->
<!DOCTYPE svg PUBLIC "-//W3C//DTD SVG 1.1//EN" "http://www.w3.org/Graphics/SVG/1.1/DTD/svg11.dtd">
<svg version="1.1" id="Capa_1" xmlns="http://www.w3.org/2000/svg" xmlns:xlink="http://www.w3.org/1999/xlink" x="0px" y="0px"
	 viewBox="0 0 86 87.8" enable-background="new 0 0 86 87.8" xml:space="preserve">
<path fill="#a8aeb9" d="M86,4c0-1.2-0.5-2.4-1.5-3.1c-0.9-0.8-2.2-1.1-3.3-0.8L30.8,10.4c-1.9,0.4-3.2,2-3.2,3.9l0,46
	c-2.8-1.6-6.2-2.5-9.8-2.5c0,0,0,0,0,0c-4.6,0-9,1.4-12.3,4.2C2,64.9,0,68.5,0,72.8c0,8.5,8,15.1,17.8,15.1c0,0,0,0,0,0
	c4.6,0,8.7-1.2,12-3.9C33.3,81,35,77.3,35,73v0.1v0v0l0.3-39.2l42.5-8.6l0,23.8c-2.8-1.6-6.1-2.3-9.7-2.3c0,0,0,0,0,0
	c-4.6,0-9,1.3-12.3,4c-3.5,2.9-5.5,6.6-5.5,10.9c0,8.5,8,15.1,17.8,15.1c0,0,0,0,0,0c9.3,0,17-6.1,17.7-14.1c0-0.1,0-0.5,0-1.6L86,4
	z M24.9,77.7c-1.9,1.6-4.4,2.1-7.2,2.1c0,0,0,0,0,0c-5.3,0-9.8-3.1-9.8-7.1c0-1.8,0.9-3.4,2.6-4.8c1.9-1.6,4.4-2.2,7.2-2.2
	c0,0,0,0,0,0c5.3,0,9.8,3.2,9.8,7.2C27.5,74.8,26.6,76.4,24.9,77.7z M35.6,26.7l0-9.1L78,9l0,9.1L35.6,26.7z M68.2,68.8
	C68.2,68.8,68.2,68.8,68.2,68.8c-5.3,0-9.8-3.2-9.8-7.2c0-1.8,0.9-3.3,2.6-4.7c1.9-1.6,4.4-2.1,7.2-2.1c0,0,0,0,0,0
	c5,0,9.8,2.6,9.8,6.4v1.1C77.1,66.1,73.3,68.8,68.2,68.8z"/>
</svg>
