<?xml version="1.0" encoding="utf-8"?>
<!-- Generator: Adobe Illustrator 17.1.0, SVG Export Plug-In . SVG Version: 6.00 Build 0)  -->
<!DOCTYPE svg PUBLIC "-//W3C//DTD SVG 1.1//EN" "http://www.w3.org/Graphics/SVG/1.1/DTD/svg11.dtd">
<svg version="1.1" id="Capa_1" xmlns="http://www.w3.org/2000/svg" xmlns:xlink="http://www.w3.org/1999/xlink" x="0px" y="0px"
	 viewBox="0 0 92 60" enable-background="new 0 0 92 60" xml:space="preserve">
<path fill="#a8aeb9" id="XMLID_48_" d="M62.3,39.5c7.7,0,14-6.3,14-14c0-7.7-6.3-14-14-14c-7.7,0-14,6.3-14,14C48.3,33.2,54.6,39.5,62.3,39.5z
	 M62.3,17.5c4.4,0,8,3.6,8,8c0,4.4-3.6,8-8,8c-4.4,0-8-3.6-8-8C54.3,21.1,57.9,17.5,62.3,17.5z M15.7,19c0-1.7,1.3-3,3-3h17.4
	c1.7,0,3,1.3,3,3s-1.3,3-3,3H18.7C17,22,15.7,20.7,15.7,19z M36.1,33H18.7c-1.7,0-3-1.3-3-3s1.3-3,3-3h17.4c1.7,0,3,1.3,3,3
	S37.8,33,36.1,33z M31.7,41c0,1.7-1.3,3-3,3H18.7c-1.7,0-3-1.3-3-3s1.3-3,3-3h10.1C30.4,38,31.7,39.3,31.7,41z M92,6.6
	C92,3,89,0,85.4,0H6.6C3,0,0,3,0,6.6v46.8C0,57,3,60,6.6,60h78.8c3.6,0,6.6-3,6.6-6.6V6.6z M8,8h76v41.7c-4-4.2-11.7-7-14.6-8
	c-0.6-0.2-1.3-0.2-2,0l-5.1,1.8l-5.1-1.8c-0.6-0.2-1.3-0.1-2,0.1C51.9,42.9,42.5,46,38.9,52H8V8z M47.7,52c2.3-2,5.3-3,8.5-4.2
	l5.1,1.8c0.6,0.2,1.4,0.2,2,0l5.1-1.7c3.2,1.2,6.2,2.2,8.5,4.2H47.7z"/>
</svg>
