<?xml version="1.0" encoding="utf-8"?>
<!-- Generator: Adobe Illustrator 17.1.0, SVG Export Plug-In . SVG Version: 6.00 Build 0)  -->
<!DOCTYPE svg PUBLIC "-//W3C//DTD SVG 1.1//EN" "http://www.w3.org/Graphics/SVG/1.1/DTD/svg11.dtd">
<svg version="1.1" id="Capa_1" xmlns="http://www.w3.org/2000/svg" xmlns:xlink="http://www.w3.org/1999/xlink" x="0px" y="0px"
	 viewBox="0 0 50 50" enable-background="new 0 0 50 50" xml:space="preserve">
<circle fill="#6BD19D" cx="25" cy="25" r="25"/>
<path fill="#FFFFFF" d="M25,30c-3.2,0-6.5-1.6-6.5-6.5h1.2c0,4.3,3.3,5.3,5.3,5.3c2.1,0,5.3-1.1,5.3-5.3h1.2
	C31.5,28.4,28.2,30,25,30z M25.6,32.4h4.1v1.2h-4.1h-1.2h-4.1v-1.2h4.1V30H25h0.6V32.4z M25,27.1c-1.8,0-3.2-1.3-3.5-3h-0.1v-4.7
	h0.1c0.3-1.7,1.7-3,3.5-3s3.2,1.3,3.5,3h0.1v4.7h-0.1C28.2,25.8,26.8,27.1,25,27.1z M27.4,20c0-1.3-1.1-2.4-2.4-2.4
	s-2.4,1.1-2.4,2.4v3.5c0,1.3,1.1,2.4,2.4,2.4s2.4-1.1,2.4-2.4V20z"/>
</svg>
