<?xml version="1.0" encoding="utf-8"?>
<!-- Generator: Adobe Illustrator 17.1.0, SVG Export Plug-In . SVG Version: 6.00 Build 0)  -->
<!DOCTYPE svg PUBLIC "-//W3C//DTD SVG 1.1//EN" "http://www.w3.org/Graphics/SVG/1.1/DTD/svg11.dtd">
<svg version="1.1" id="Capa_1" xmlns="http://www.w3.org/2000/svg" xmlns:xlink="http://www.w3.org/1999/xlink" x="0px" y="0px"
	 viewBox="0 0 73.6 58.4" enable-background="new 0 0 73.6 58.4" xml:space="preserve">
<path fill="#FFFFFF" d="M4,58.4c-0.3,0-0.7,0-1-0.1c-1.7-0.5-3-2.1-3-3.9c0-0.6,0.1-16,11.4-27.5c7.2-7.3,17.2-11.4,29.7-12.1V4
	c0-1.6,1-3.1,2.5-3.7C45.1-0.3,46.8,0,48,1.2l24.5,25.2c1.5,1.6,1.5,4.1,0,5.6L48,57.2c-1.1,1.2-2.8,1.5-4.3,0.9
	c-1.5-0.6-2.5-2.1-2.5-3.7V43.5C33.2,43.2,14.3,44,7.4,56.3C6.7,57.6,5.4,58.4,4,58.4z M39,35.4c3.7,0,6.2,0.3,6.6,0.3
	c2,0.2,3.5,1.9,3.5,4v4.8l14.9-15.3L49.1,13.8v4.8c0,2.2-1.8,4-4,4c-12.2,0-21.7,3.3-28.1,9.8c-2.9,3-4.9,6.3-6.3,9.4
	C20.1,36.4,31.8,35.4,39,35.4z"/>
</svg>
