<?xml version="1.0" encoding="utf-8"?>
<!-- Generator: Adobe Illustrator 17.1.0, SVG Export Plug-In . SVG Version: 6.00 Build 0)  -->
<!DOCTYPE svg PUBLIC "-//W3C//DTD SVG 1.1//EN" "http://www.w3.org/Graphics/SVG/1.1/DTD/svg11.dtd">
<svg version="1.1" id="Capa_1" xmlns="http://www.w3.org/2000/svg" xmlns:xlink="http://www.w3.org/1999/xlink" x="0px" y="0px"
	 viewBox="0 0 50 50" enable-background="new 0 0 50 50" xml:space="preserve">
<circle fill="#00A0EE" cx="25" cy="25" r="25"/>
<g>
	<path fill="#FFFFFF" d="M30.7,20.2V17c0-0.2-0.1-0.3-0.2-0.4c-0.1-0.1-0.3-0.1-0.4-0.1l-9.7,3.1c-0.2,0.1-0.3,0.2-0.3,0.5v3.3v0
		v6.3c-0.5-0.4-1.2-0.5-1.8-0.5c-0.7,0-1.4,0.2-1.9,0.6c-0.6,0.4-0.9,1-0.9,1.6s0.3,1.2,0.9,1.6c0.5,0.4,1.2,0.6,1.9,0.6
		s1.4-0.2,1.9-0.6c0.6-0.4,0.9-1,0.9-1.6v-7.6l8.8-2.8v5.6c-0.5-0.4-1.2-0.5-1.8-0.5c-0.7,0-1.4,0.2-1.9,0.6c-0.6,0.4-0.9,1-0.9,1.6
		c0,0.6,0.3,1.2,0.9,1.6c0.5,0.4,1.2,0.6,1.9,0.6s1.4-0.2,1.9-0.6c0.6-0.4,0.9-1,0.9-1.6V20.2C30.7,20.2,30.7,20.2,30.7,20.2z
		 M18.1,32.6c-1,0-1.8-0.6-1.8-1.3c0-0.7,0.8-1.3,1.8-1.3c1,0,1.8,0.6,1.8,1.3C20,32,19.1,32.6,18.1,32.6z M20.9,22.7v-2.3l8.8-2.8
		v2.3L20.9,22.7z M27.9,29.4c-1,0-1.8-0.6-1.8-1.3c0-0.7,0.8-1.3,1.8-1.3s1.8,0.6,1.8,1.3C29.7,28.9,28.9,29.4,27.9,29.4z"/>
</g>
</svg>
