<?xml version="1.0" encoding="utf-8"?>
<!-- Generator: Adobe Illustrator 17.1.0, SVG Export Plug-In . SVG Version: 6.00 Build 0)  -->
<!DOCTYPE svg PUBLIC "-//W3C//DTD SVG 1.1//EN" "http://www.w3.org/Graphics/SVG/1.1/DTD/svg11.dtd">
<svg version="1.1" id="Capa_1" xmlns="http://www.w3.org/2000/svg" xmlns:xlink="http://www.w3.org/1999/xlink" x="0px" y="0px"
	 viewBox="0 906.8 900 404" enable-background="new 0 906.8 900 404" xml:space="preserve">
<path fill="#FFFFFF" d="M900,1230.2l-41.8,79.1H543.5l170.8-322.5H573.1l-42.5-79.9h316l-171.7,323.3H900z M287.3,986.3l-41.7-78.9
	h254.2l41.8,78.9C541.6,986.3,287.3,986.3,287.3,986.3z M337.9,1309.2l-125.1-234.9l-82,156h83l41.8,78.9H0l213.7-402.1l213.2,402.1
	H337.9L337.9,1309.2z M333.1,1072.5c0,0,231.3,0,271.6,0c-5.2,168.2-145.2,238.4-145.2,238.4s-19.4-37.5-37.1-70.3
	c56.8-28.7,85.3-89.3,85.3-89.3H375.1L333.1,1072.5z"/>
</svg>
