<?xml version="1.0" encoding="utf-8"?>
<!-- Generator: Adobe Illustrator 17.1.0, SVG Export Plug-In . SVG Version: 6.00 Build 0)  -->
<!DOCTYPE svg PUBLIC "-//W3C//DTD SVG 1.1//EN" "http://www.w3.org/Graphics/SVG/1.1/DTD/svg11.dtd">
<svg version="1.1" id="Capa_1" xmlns="http://www.w3.org/2000/svg" xmlns:xlink="http://www.w3.org/1999/xlink" x="0px" y="0px"
	 viewBox="11 323.6 878 743.8" enable-background="new 11 323.6 878 743.8" xml:space="preserve">
<g>
	<g>
		<path fill="#FFFFFF" d="M140.3,931.2c-12.4,0-22.5-10-22.5-22.3V798.3H83.1c-39.7,0-72.1-32.3-72.1-72.1V395.7
			c0-39.7,32.3-72.1,72.1-72.1h559.6c39.7,0,72.1,32.3,72.1,72.1v330.5c0,19.1-7.5,37.2-21,50.8c-13.5,13.6-31.5,21.1-50.5,21.1
			c0,0-377.8,0-377.8,0L157.1,923.4C152.8,928.3,146.6,931.2,140.3,931.2z M83.1,346.6c-27,0-49.1,22-49.1,49.1V726
			c0,27,22,49.1,49.1,49.1h46c6.4,0,11.6,5.2,11.6,11.6v120.1l110.4-127.6c2.3-2.6,5.4-4,8.8-4h382.7c27,0,49.1-22,49.1-49.1V395.7
			c0-27-22-49.1-49.1-49.1H83.1z"/>
		<path fill="#FFFFFF" d="M759.7,1067.4c-6.4,0-12.4-2.8-16.6-7.7l-108.5-125h-333c-6.4,0-11.6-5.2-11.6-11.6s5.2-11.6,11.6-11.6
			h338.2c3.5,0,6.6,1.4,8.7,3.9L759.2,1043V922.9c0-6.4,5.2-11.6,11.6-11.6h46.1c27,0,49.1-22,49.1-49.1V531.7
			c0-27-22-49.1-49.1-49.1c-6.4,0-11.6-5.2-11.6-11.6c0-6.3,5.2-11.4,11.6-11.4c39.7,0,72.1,32.3,72.1,72.1v330.5
			c0,39.8-32.3,72.1-72.1,72.1h-34.7v110.6c0,9.6-5.6,17.6-14.6,21C765,1066.9,762.3,1067.4,759.7,1067.4z"/>
		<circle fill="#FFFFFF" cx="362.9" cy="568.8" r="26.8"/>
		<circle fill="#FFFFFF" cx="452.8" cy="568.8" r="26.8"/>
		<circle fill="#FFFFFF" cx="273" cy="568.8" r="26.8"/>
	</g>
</g>
</svg>
