<?xml version="1.0" encoding="utf-8"?>
<!-- Generator: Adobe Illustrator 17.1.0, SVG Export Plug-In . SVG Version: 6.00 Build 0)  -->
<!DOCTYPE svg PUBLIC "-//W3C//DTD SVG 1.1//EN" "http://www.w3.org/Graphics/SVG/1.1/DTD/svg11.dtd">
<svg version="1.1" id="Capa_1" xmlns="http://www.w3.org/2000/svg" xmlns:xlink="http://www.w3.org/1999/xlink" x="0px" y="0px"
	 viewBox="0 257.8 900 875.4" enable-background="new 0 257.8 900 875.4" xml:space="preserve">
<g>
	<g>
		<path fill="#FFFFFF" d="M758.5,1133.2h-617c-7.5,0-13.6-6.1-13.6-13.6V737.9c0-7.5,6.1-13.6,13.6-13.6c7.5,0,13.6,6.1,13.6,13.6
			v368h589.8v-368c0-7.5,6.1-13.6,13.6-13.6c7.5,0,13.6,6.1,13.6,13.6v381.7C772.1,1127.1,766.1,1133.2,758.5,1133.2z"/>
		<path fill="#FFFFFF" d="M758,752.2c-3.4,0-6.7-1.2-9.4-3.7L450,466.5l-298.5,282c-5.5,5.2-14.2,4.9-19.3-0.5
			c-5.2-5.5-4.9-14.1,0.5-19.3l307.9-290.8c5.3-5,13.5-5,18.7,0l308,290.8c5.5,5.2,5.7,13.8,0.6,19.3
			C765.2,750.8,761.6,752.2,758,752.2z"/>
	</g>
	<path fill="#FFFFFF" d="M886.4,697.1c-3.4,0-6.7-1.2-9.4-3.7L450,290.2L23,693.4c-5.5,5.2-14.2,4.9-19.3-0.6
		c-5.2-5.5-4.9-14.1,0.5-19.3l436.4-412c5.3-5,13.5-5,18.8,0l436.4,412c5.5,5.2,5.7,13.8,0.5,19.3
		C893.6,695.7,890,697.1,886.4,697.1z"/>
	<path fill="#FFFFFF" d="M558.8,1133.2H341.2c-7.5,0-13.6-6.1-13.6-13.6V824c0-7.5,6.1-13.6,13.6-13.6h217.7
		c7.5,0,13.6,6.1,13.6,13.6v295.5C572.5,1127.1,566.4,1133.2,558.8,1133.2z M354.8,1105.9h190.4V837.7H354.8V1105.9z"/>
</g>
</svg>
