<?xml version="1.0" encoding="utf-8"?>
<!-- Generator: Adobe Illustrator 17.1.0, SVG Export Plug-In . SVG Version: 6.00 Build 0)  -->
<!DOCTYPE svg PUBLIC "-//W3C//DTD SVG 1.1//EN" "http://www.w3.org/Graphics/SVG/1.1/DTD/svg11.dtd">
<svg version="1.1" id="Capa_1" xmlns="http://www.w3.org/2000/svg" xmlns:xlink="http://www.w3.org/1999/xlink" x="0px" y="0px"
	 viewBox="0 0 76 58" enable-background="new 0 0 76 58" xml:space="preserve">
<path fill="#a8aeb9" id="XMLID_512_" d="M74.8,31.8l-24.9,25c-0.8,0.8-1.8,1.2-2.8,1.2c-1,0-2-0.4-2.8-1.2c-1.6-1.6-1.6-4.1,0-5.7L62.4,33H4
	c-2.2,0-4-1.8-4-4s1.8-4,4-4h58.4L44.2,6.8c-1.6-1.6-1.6-4.1,0-5.7c1.6-1.6,4.1-1.6,5.7,0l24.9,25C76.4,27.7,76.4,30.3,74.8,31.8z"
	/>
</svg>
