<?xml version="1.0" encoding="utf-8"?>
<!-- Generator: Adobe Illustrator 17.1.0, SVG Export Plug-In . SVG Version: 6.00 Build 0)  -->
<!DOCTYPE svg PUBLIC "-//W3C//DTD SVG 1.1//EN" "http://www.w3.org/Graphics/SVG/1.1/DTD/svg11.dtd">
<svg version="1.1" id="Capa_1" xmlns="http://www.w3.org/2000/svg" xmlns:xlink="http://www.w3.org/1999/xlink" x="0px" y="0px"
	 viewBox="0 515.6 900.1 875.4" enable-background="new 0 515.6 900.1 875.4" xml:space="preserve">
<path id="XMLID_100_" fill="#a8aeb9" d="M842.7,981.4c-9.4,0-18.8-3.5-26.1-10.6L450,612.9L83.5,970.8
	c-14.8,14.4-38.5,14.1-52.9-0.6c-14.4-14.8-14.1-38.5,0.6-52.9l392.6-383.4c14.5-14.2,37.7-14.2,52.2,0l392.6,383.4
	c14.8,14.4,15.1,38.1,0.6,52.9C862.1,977.6,852.4,981.4,842.7,981.4z M760.8,1345.9V980.5c0-20.7-16.7-37.4-37.4-37.4
	c-20.7,0-37.4,16.7-37.4,37.4v328H569.2v-199.9c0-27.4-22.3-49.6-49.6-49.6H380.5c-27.4,0-49.6,22.3-49.6,49.6v199.9H214v-328
	c0-20.7-16.7-37.4-37.4-37.4s-37.4,16.7-37.4,37.4v365.4c0,20.7,16.7,37.4,37.4,37.4h191.6c20.7,0,37.4-16.7,37.4-37.4v-212.2h88.8
	v212.2c0,20.7,16.7,37.4,37.4,37.4h191.6C744.1,1383.3,760.8,1366.6,760.8,1345.9z"/>
</svg>
