<?xml version="1.0" encoding="utf-8"?>
<!-- Generator: Adobe Illustrator 17.1.0, SVG Export Plug-In . SVG Version: 6.00 Build 0)  -->
<!DOCTYPE svg PUBLIC "-//W3C//DTD SVG 1.1//EN" "http://www.w3.org/Graphics/SVG/1.1/DTD/svg11.dtd">
<svg version="1.1" id="Capa_1" xmlns="http://www.w3.org/2000/svg" xmlns:xlink="http://www.w3.org/1999/xlink" x="0px" y="0px"
	 viewBox="0 245.5 900 900" enable-background="new 0 245.5 900 900" xml:space="preserve">
<g>
	<path fill="#FFFFFF" d="M683.4,683.1l-330-225c-4.6-3.1-10.5-3.5-15.5-0.9c-4.9,2.6-8,7.7-8,13.3v450c0,5.6,3.1,10.7,8,13.3
		c2.2,1.2,4.6,1.7,7,1.7c3,0,5.9-0.9,8.4-2.6l330-225c4.1-2.8,6.6-7.4,6.6-12.4S687.5,685.9,683.4,683.1z M360,892.1V498.9
		l288.4,196.6L360,892.1z"/>
	<path fill="#FFFFFF" d="M450,245.5c-248.1,0-450,201.9-450,450s201.9,450,450,450s450-201.9,450-450S698.1,245.5,450,245.5z
		 M450,1115.5c-231.6,0-420-188.4-420-420s188.4-420,420-420s420,188.4,420,420S681.6,1115.5,450,1115.5z"/>
</g>
</svg>
