<?xml version="1.0" encoding="utf-8"?>
<!-- Generator: Adobe Illustrator 17.1.0, SVG Export Plug-In . SVG Version: 6.00 Build 0)  -->
<!DOCTYPE svg PUBLIC "-//W3C//DTD SVG 1.1//EN" "http://www.w3.org/Graphics/SVG/1.1/DTD/svg11.dtd">
<svg version="1.1" id="Capa_1" xmlns="http://www.w3.org/2000/svg" xmlns:xlink="http://www.w3.org/1999/xlink" x="0px" y="0px"
	 viewBox="0 245.5 900 900" enable-background="new 0 245.5 900 900" xml:space="preserve">
<g>
	<path fill="#FFFFFF" d="M450,245.5c-248.1,0-450,201.9-450,450s201.9,450,450,450s450-201.9,450-450S698.1,245.5,450,245.5z
		 M450,1115.5c-231.6,0-420-188.4-420-420s188.4-420,420-420s420,188.4,420,420S681.6,1115.5,450,1115.5z"/>
	<path fill="#FFFFFF" d="M495,935.5h120v-480H495V935.5z M525,485.5h60v420h-60V485.5z"/>
	<path fill="#FFFFFF" d="M285,935.5h120v-480H285V935.5z M315,485.5h60v420h-60V485.5z"/>
</g>
</svg>
